<svg version="1.1" viewBox="0 0 1600 1600" width="1280" height="1280" xmlns="http://www.w3.org/2000/svg">
<path transform="translate(140 238)" d="m0 0c0.941-0.00153 1.88-0.00305 2.85-0.00463 3.15-0.00389 6.3-6.88e-4 9.44 0.00249 2.29-0.00135 4.58-0.00313 6.88-0.00531 6.32-0.00473 12.6-0.00323 19-7.22e-4 6.16 0.00195 12.3-0.00178 18.5-0.00487 12.7-0.00623 25.5-0.00771 38.2-0.00658 12.9 0.00112 25.8 9.05e-5 38.8-0.00357 0.816-2.3e-4 1.63-4.59e-4 2.47-6.96e-4 3.32-9.42e-4 6.65-0.0019 9.97-0.00287 34.7-0.0101 69.3-0.0132 104-0.0138 3.73-6.47e-5 7.46-1.33e-4 11.2-2.03e-4 0.926-1.7e-5 1.85-3.4e-5 2.81-5.15e-5 20.5-4.08e-4 41-0.0026 61.6-0.0051 8.45-0.00103 16.9-0.00202 25.3-0.00302 0.934-1.11e-4 1.87-2.21e-4 2.83-3.35e-4 53.5-0.00632 107-0.0104 161-0.00999 2 1.58e-5 4 3.15e-5 6.01 4.72e-5 9.04 7.34e-5 18.1 1.62e-4 27.1 2.54e-4 4.03 4.11e-5 8.06 8.13e-5 12.1 1.21e-4 2.02 2.04e-5 4.04 4.14e-5 6.05 6.31e-5 63.8 6.8e-4 128-0.00664 191-0.0205 16.1-0.0035 32.2-0.00697 48.2-0.0103 1.48-3.04e-4 1.48-3.04e-4 3-6.15e-4 30.5-0.00621 61-0.00998 91.5-0.0112 0.958-4e-5 1.92-7.99e-5 2.9-1.21e-4 21-8.53e-4 42.1-0.00111 63.1-8.3e-4 7.52 9.65e-5 15 1.49e-4 22.6 1.79e-4 1.87 7.91e-6 3.74 1.81e-5 5.62 3.06e-5 29.8 1.76e-4 59.6-0.00552 89.5-0.0142 30-0.00865 60.1-0.0108 90.1-0.00424 4.15 9.12e-4 8.3 0.00176 12.5 0.00256 0.814 1.6e-4 1.63 3.2e-4 2.47 4.85e-4 12.9 0.00235 25.8-2e-3 38.6-0.00916 12.7-0.0069 25.3-0.00664 38 0.00119 6.78 0.00399 13.6 0.00462 20.3-0.00346 6.17-0.00729 12.3-0.00533 18.5 0.00392 2.21 0.00172 4.43 1.03e-4 6.64-0.0053 15.8-0.0361 31.1 0.436 46.4 5.07 0.886 0.26 1.77 0.52 2.68 0.788 6.45 1.94 12.5 4.24 18.5 7.4-1.41 3.2-3.1 5.35-5.57 7.82-0.74 0.746-1.48 1.49-2.24 2.26-0.813 0.808-1.63 1.62-2.46 2.45-0.855 0.859-1.71 1.72-2.59 2.6-2.34 2.35-4.69 4.7-7.04 7.04-2.46 2.45-4.91 4.91-7.36 7.37-4.12 4.12-8.24 8.24-12.4 12.4-4.77 4.76-9.54 9.53-14.3 14.3-4.09 4.1-8.18 8.19-12.3 12.3-2.45 2.44-4.89 4.89-7.33 7.34-2.72 2.73-5.45 5.44-8.17 8.16-0.813 0.817-1.63 1.63-2.46 2.47-0.74 0.735-1.48 1.47-2.24 2.23-0.645 0.644-1.29 1.29-1.95 1.95-1.61 1.36-1.61 1.36-3.61 1.36-0.66 1.32-1.32 2.64-2 4h-2c-0.33 0.99-0.66 1.98-1 3h-2c-0.66 1.32-1.32 2.64-2 4h-2c-0.33 0.99-0.66 1.98-1 3-1.98 1.69-3.98 3.35-6 5-0.66 0.99-1.32 1.98-2 3h-2c-0.33 0.99-0.66 1.98-1 3-1.47 1.25-2.95 2.49-4.46 3.69-1.71 1.38-1.71 1.38-3.41 3.69-2.46 3.03-5.22 5.4-8.17 7.93-3.41 2.95-6.44 6.05-9.27 9.57-1.83 2.24-3.74 4.08-5.96 5.93-6.7 5.81-12.8 12.2-19.1 18.5-1.45 1.45-2.89 2.9-4.34 4.35-3.1 3.11-6.2 6.22-9.3 9.33-4.9 4.91-9.8 9.82-14.7 14.7-13.9 14-27.9 27.9-41.8 41.9-7.7 7.72-15.4 15.4-23.1 23.2-4.88 4.88-9.75 9.77-14.6 14.7-3.02 3.03-6.04 6.06-9.07 9.09-1.41 1.41-2.81 2.82-4.22 4.23-1.91 1.92-3.82 3.83-5.74 5.75-0.841 0.851-0.841 0.851-1.7 1.72-3.84 3.81-3.84 3.81-6.07 3.81-0.33 0.99-0.66 1.98-1 3-1.94 2.19-1.94 2.19-4 4h-2v2c-1.61 1.55-1.61 1.55-3.75 3.31-2.35 1.99-4.32 3.77-6.25 6.19-1.79 2.23-3.49 3.85-5.66 5.69-4.13 3.58-8.01 7.34-11.9 11.2-0.712 0.712-1.42 1.42-2.16 2.16-2.36 2.37-4.72 4.74-7.08 7.11-1.7 1.71-3.4 3.41-5.11 5.12-3.65 3.66-7.31 7.32-11 11-5.28 5.3-10.6 10.6-15.9 15.9-8.58 8.59-17.2 17.2-25.7 25.8-0.512 0.513-1.02 1.03-1.55 1.56-7.29 7.3-14.6 14.6-21.9 21.9-0.514 0.516-1.03 1.03-1.56 1.56-0.514 0.515-1.03 1.03-1.56 1.56-8.55 8.57-17.1 17.1-25.7 25.7-5.28 5.28-10.6 10.6-15.8 15.9-4.03 4.04-8.06 8.08-12.1 12.1-1.66 1.66-3.32 3.32-4.97 4.99-2.25 2.26-4.51 4.52-6.76 6.77-0.662 0.668-1.32 1.34-2.01 2.03-4.52 4.5-4.52 4.5-6.75 4.5-0.33 0.99-0.66 1.98-1 3h-2v2c-1.66 1.34-3.33 2.67-5 4-0.598 0.763-1.2 1.53-1.81 2.31-1.84 2.26-3.52 3.9-5.72 5.76-4.93 4.27-9.51 8.86-14.1 13.5-1.43 1.43-2.85 2.86-4.28 4.3-1.52 1.53-3.04 3.05-4.55 4.58-3.18 3.2-6.37 6.39-9.55 9.59-9.05 9.08-18.1 18.2-27.1 27.2-5.01 5.03-10 10.1-15 15.1-3.16 3.16-6.31 6.33-9.46 9.5-1.97 1.98-3.95 3.96-5.93 5.94-1.33 1.33-2.66 2.67-3.98 4.01-5.83 5.82-12 11.1-18.4 16.2-0.911 0.751-1.82 1.5-2.76 2.28-28.9 23.7-67.6 31.5-104 27.9-17.1-2.03-33.2-7.77-48.1-16.2l-3.08-1.61c-18.3-9.93-33.6-25.9-48.2-40.6-1.06-1.07-2.13-2.13-3.19-3.2-2.27-2.27-4.53-4.54-6.79-6.81-3.58-3.6-7.17-7.19-10.8-10.8-7.61-7.62-15.2-15.2-22.8-22.9-8.23-8.25-16.5-16.5-24.7-24.7-3.56-3.57-7.12-7.13-10.7-10.7-2.21-2.22-4.43-4.44-6.65-6.66-1.02-1.02-2.04-2.05-3.06-3.07-6.44-6.48-6.44-6.48-13.3-12.5-0.936-0.814-1.87-1.63-2.84-2.47v-2c-0.99-0.33-1.98-0.66-3-1v-2c-0.596-0.271-1.19-0.542-1.81-0.821-2.17-1.16-3.57-2.31-5.3-4.04-0.59-0.587-1.18-1.17-1.79-1.78-0.639-0.645-1.28-1.29-1.94-1.95-0.686-0.685-1.37-1.37-2.08-2.08-2.3-2.3-4.6-4.61-6.89-6.92-1.65-1.65-3.29-3.3-4.94-4.95-3.55-3.55-7.1-7.11-10.6-10.7-5.13-5.15-10.3-10.3-15.4-15.4-8.34-8.35-16.7-16.7-25-25.1-0.499-0.5-0.998-1-1.51-1.52-0.499-0.501-0.999-1-1.51-1.52-7.08-7.1-14.2-14.2-21.2-21.3-0.747-0.749-0.747-0.749-1.51-1.51-8.31-8.32-16.6-16.6-24.9-25-5.58-5.59-11.2-11.2-16.7-16.8-3.47-3.48-6.94-6.95-10.4-10.4-1.61-1.61-3.22-3.23-4.83-4.84-2.19-2.2-4.39-4.4-6.59-6.6-0.955-0.961-0.955-0.961-1.93-1.94-3.2-3.19-6.44-6.14-10-8.9-2.31-2.12-2.31-2.12-4-4v-2c-1.32-0.66-2.64-1.32-4-2v-2c-0.99-0.33-1.98-0.66-3-1v-2c-1.32-0.66-2.64-1.32-4-2v-2c-0.598-0.268-1.2-0.536-1.81-0.812-2.19-1.19-3.6-2.28-5.19-4.19v-2c-0.59-0.265-1.18-0.53-1.79-0.803-2.29-1.24-3.78-2.52-5.61-4.35-0.656-0.653-1.31-1.31-1.99-1.98-0.713-0.719-1.43-1.44-2.16-2.18-0.764-0.763-1.53-1.53-2.31-2.31-2.56-2.56-5.12-5.14-7.68-7.71-1.83-1.84-3.67-3.67-5.5-5.51-3.96-3.96-7.91-7.92-11.9-11.9-5.72-5.74-11.4-11.5-17.2-17.2-9.29-9.3-18.6-18.6-27.9-27.9-0.556-0.557-1.11-1.11-1.68-1.69-0.556-0.558-1.11-1.12-1.69-1.69-7.88-7.9-15.8-15.8-23.7-23.7-0.555-0.556-1.11-1.11-1.68-1.68-9.25-9.27-18.5-18.5-27.8-27.8-5.71-5.71-11.4-11.4-17.1-17.2-4.37-4.38-8.74-8.76-13.1-13.1-1.79-1.8-3.59-3.59-5.38-5.39-2.44-2.45-4.89-4.9-7.34-7.35-0.71-0.715-1.42-1.43-2.15-2.17-3.37-3.37-6.77-6.45-10.5-9.4-0.804-0.969-1.61-1.94-2.44-2.94-2.47-3.14-2.47-3.14-5.56-5.56-2.26-1.89-3.88-3.44-5.69-5.69-2.19-2.94-2.19-2.94-5.31-4.81v-2c-1.49-0.495-1.49-0.495-3-1-2.19-1.94-2.19-1.94-4-4v-2c-0.597-0.272-1.19-0.544-1.81-0.824-2.15-1.15-3.54-2.28-5.25-4-0.578-0.575-1.16-1.15-1.75-1.74-0.621-0.629-1.24-1.26-1.88-1.91-0.664-0.664-1.33-1.33-2.01-2.01-2.19-2.19-4.37-4.39-6.56-6.59-1.52-1.52-3.04-3.04-4.56-4.57-4-4-7.99-8.01-12-12-4.07-4.09-8.15-8.18-12.2-12.3-8-8.02-16-16-24-24.1 1.38-2.75 2.73-2.82 5.6-3.84 0.958-0.34 1.92-0.679 2.9-1.03 1.03-0.353 2.06-0.705 3.12-1.07 1.04-0.36 2.09-0.719 3.16-1.09 14.5-4.86 28.8-7.14 44-7.1z" fill="#000100"/>
<path transform="translate(565,867)" d="m0 0c4.66 3.9 9.08 7.94 13.4 12.3 0.593 0.594 1.19 1.19 1.8 1.8 1.28 1.28 2.55 2.56 3.82 3.84 2.02 2.03 4.04 4.06 6.07 6.09 5.03 5.04 10 10.1 15.1 15.1 4.25 4.27 8.5 8.54 12.8 12.8 1.98 1.99 3.96 3.98 5.94 5.97 5.89 5.91 11.8 11.7 18.2 17.1 1.06 0.947 2.12 1.9 3.18 2.85 40.9 36.5 94.3 56.4 149 58.1 1.02 0.0412 2.04 0.0825 3.1 0.125 39.3 0.829 79.4-9.4 114-28.1 0.723-0.385 1.45-0.769 2.19-1.17 20.6-11 39.1-25.5 55.3-42.4 1.14-1.19 2.33-2.33 3.53-3.47h2c0.33-0.99 0.66-1.98 1-3 1.98-1.69 3.98-3.35 6-5 0.66-0.99 1.32-1.98 2-3h2c0.66-1.32 1.32-2.64 2-4h2c0.33-0.99 0.66-1.98 1-3h2c0.66-1.32 1.32-2.64 2-4h2c0.33-0.99 0.66-1.98 1-3h2c0.387-0.874 0.387-0.874 0.781-1.77 1.32-2.41 2.77-4.05 4.72-5.98 0.608-0.614 1.22-1.23 1.84-1.86 1.66-1.39 1.66-1.39 3.66-1.39 0.387-0.874 0.387-0.874 0.781-1.77 1.32-2.41 2.77-4.05 4.72-5.98 0.608-0.614 1.22-1.23 1.84-1.86 1.66-1.39 1.66-1.39 3.66-1.39 0.33-0.99 0.66-1.98 1-3h2c0.66-1.32 1.32-2.64 2-4h2c0.33-0.99 0.66-1.98 1-3 1.62-1.39 3.29-2.73 5-4 5.97 4.91 11.4 10.3 16.8 15.8 1.63 1.64 3.26 3.28 4.9 4.92 3.46 3.48 6.92 6.95 10.4 10.4 4.02 4.04 8.04 8.08 12.1 12.1 1.6 1.61 3.2 3.22 4.8 4.83 0.988 0.991 1.98 1.98 2.96 2.97 0.856 0.861 1.71 1.72 2.59 2.61 2.4 2.35 2.4 2.35 4.96 4.34 2.71 2.17 5.06 4.53 7.5 7 0.827 0.828 1.65 1.66 2.51 2.51 0.889 0.89 1.78 1.78 2.69 2.7 1.04 1.04 2.07 2.08 3.11 3.11 0.548 0.548 1.1 1.1 1.66 1.66 12.6 12.6 25.3 25.3 37.9 37.9 7.3 7.31 14.6 14.6 21.9 21.9 6.38 6.39 12.8 12.8 19.1 19.2 3.37 3.38 6.75 6.75 10.1 10.1 3.17 3.18 6.34 6.35 9.51 9.52 1.16 1.16 2.33 2.33 3.49 3.49 1.59 1.59 3.18 3.18 4.77 4.77 0.889 0.889 1.78 1.78 2.69 2.7 2.4 2.29 4.9 4.34 7.51 6.38 2.31 2.13 2.31 2.13 4 4v2c1.32 0.66 2.64 1.32 4 2v2c0.99 0.33 1.98 0.66 3 1v2c1.32 0.66 2.64 1.32 4 2v2c0.541 0.216 1.08 0.432 1.64 0.655 3.18 1.81 5.56 4.28 8.12 6.87 0.856 0.855 0.856 0.855 1.73 1.73 1.91 1.91 3.82 3.83 5.72 5.75 1.37 1.37 2.74 2.74 4.11 4.11 2.95 2.95 5.9 5.91 8.85 8.87 4.66 4.68 9.33 9.36 14 14 7.38 7.4 14.8 14.8 22.1 22.2 13.2 13.2 26.4 26.5 39.6 39.7 4.64 4.65 9.27 9.29 13.9 13.9 2.89 2.9 5.77 5.79 8.66 8.68 1.34 1.34 2.67 2.68 4.01 4.02 1.83 1.84 3.65 3.67 5.48 5.5 0.525 0.529 1.05 1.06 1.59 1.6 2.46 2.45 4.95 4.78 7.64 6.98 3.02 2.52 5.28 5.31 7.78 8.32 1.65 1.36 3.31 2.69 5 4 2.81 2.62 2.81 2.62 5 5v2c1.32 0.66 2.64 1.32 4 2v2c0.99 0.33 1.98 0.66 3 1v2c0.573 0.248 1.15 0.496 1.74 0.751 2.62 1.45 4.39 3.12 6.5 5.23 0.838 0.833 1.68 1.67 2.54 2.52 0.911 0.915 1.82 1.83 2.76 2.77 0.976 0.973 1.95 1.95 2.93 2.92 2.65 2.64 5.29 5.28 7.93 7.93 2.76 2.77 5.53 5.53 8.29 8.29 4.64 4.64 9.28 9.28 13.9 13.9 5.36 5.37 10.7 10.7 16.1 16.1 4.61 4.6 9.22 9.21 13.8 13.8 2.75 2.75 5.5 5.51 8.26 8.26 2.59 2.58 5.17 5.17 7.75 7.76 1.4 1.41 2.81 2.81 4.22 4.21 0.827 0.833 1.65 1.67 2.51 2.52 0.725 0.726 1.45 1.45 2.2 2.2 1.53 1.79 1.53 1.79 1.53 3.79-9.97 3.99-19.9 7.47-30.4 9.88-1.3 0.304-1.3 0.304-2.62 0.614-14.2 3.11-28.8 2.65-43.3 2.64-2.27 0.00135-4.55 0.00313-6.82 0.00531-6.25 0.00472-12.5 0.00323-18.8 7.22e-4 -6.1-0.00147-12.2 0.00178-18.3 0.00487-12.6 0.00623-25.2 0.00771-37.9 0.00658-12.8-0.00113-25.6-8.82e-5 -38.4 0.00357-0.808 2.3e-4 -1.62 4.59e-4 -2.45 6.96e-4 -3.29 9.42e-4 -6.58 0.0019-9.88 0.00287-34.3 0.0101-68.7 0.0132-103 0.0138-3.69 6.47e-5 -7.39 1.33e-4 -11.1 2.03e-4 -0.917 1.7e-5 -1.83 3.4e-5 -2.78 5.15e-5 -20.3 4.09e-4 -40.6 0.0026-61 0.0051-8.37 0.00103-16.7 0.00202-25.1 0.00302-1.39 1.66e-4 -1.39 1.66e-4 -2.8 3.35e-4 -53 0.00632-106 0.0104-159 0.00999-1.98-1.58e-5 -3.97-3.15e-5 -5.95-4.72e-5 -8.95-7.34e-5 -17.9-1.62e-4 -26.9-2.54e-4 -3.99-4.11e-5 -7.99-8.13e-5 -12-1.21e-4 -2-2.04e-5 -4-4.14e-5 -5.99-6.31e-5 -63.2-6.8e-4 -126 0.00664-190 0.0205-15.9 0.0035-31.8 0.00697-47.8 0.0103-1.47 3.04e-4 -1.47 3.04e-4 -2.97 6.15e-4 -30.2 0.00622-60.4 0.00998-90.7 0.0112-0.949 4e-5 -1.9 7.99e-5 -2.88 1.21e-4 -20.8 8.53e-4 -41.7 0.00111-62.5 8.3e-4 -7.45-9.65e-5 -14.9-1.49e-4 -22.4-1.79e-4 -1.85-7.91e-6 -3.71-1.81e-5 -5.56-3.06e-5 -29.5-1.76e-4 -59.1 0.00552-88.6 0.0142-29.7 0.00865-59.5 0.0108-89.2 0.00424-4.11-9.12e-4 -8.23-0.00176-12.3-0.00256-0.806-1.6e-4 -1.61-3.2e-4 -2.44-4.85e-4 -12.8-0.00235-25.5 2e-3 -38.3 0.00916-12.5 0.0069-25.1 0.00663-37.6-0.00119-6.71-0.00399-13.4-0.00464-20.1 0.00346-6.11 0.00731-12.2 0.00531-18.3-0.00392-2.19-0.00171-4.38-1.22e-4 -6.57 0.0053-34.1 0.0788-34.1 0.0788-49.8-4.57-0.766-0.213-1.53-0.426-2.32-0.645-7.06-2.01-14-4.42-20.8-7.04 0-4 0-4 1.95-6.44 0.919-0.918 1.84-1.84 2.79-2.78 0.509-0.514 1.02-1.03 1.54-1.56 1.71-1.72 3.44-3.43 5.17-5.15 1.23-1.23 2.46-2.46 3.68-3.7 3.34-3.35 6.69-6.69 10-10 3.5-3.49 7-6.98 10.5-10.5 5.87-5.87 11.7-11.7 17.6-17.6 6.81-6.78 13.6-13.6 20.4-20.4 6.53-6.53 13.1-13 19.6-19.6 2.79-2.78 5.57-5.56 8.35-8.34 3.27-3.27 6.55-6.54 9.83-9.8 1.21-1.2 2.41-2.4 3.62-3.61 1.64-1.64 3.28-3.27 4.92-4.9 0.92-0.917 1.84-1.83 2.79-2.78 2.2-1.94 2.2-1.94 4.2-1.94 0.33-0.99 0.66-1.98 1-3 1.94-2.19 1.94-2.19 4-4h2c0.33-0.99 0.66-1.98 1-3 1.45-1.22 2.91-2.44 4.39-3.61 1.88-1.54 1.88-1.54 4.11-4.39 2.59-3.11 5.36-5.45 8.5-8 1.68-1.65 3.34-3.32 5-5 1.38-1.39 1.38-1.39 2.8-2.8 1.04-1.04 2.07-2.08 3.11-3.11 1.19-1.2 2.39-2.39 3.58-3.59 0.633-0.634 1.27-1.27 1.92-1.92 14.6-14.6 29.1-29.2 43.7-43.7 8.42-8.43 16.8-16.9 25.2-25.3 7.34-7.36 14.7-14.7 22-22.1 3.89-3.89 7.78-7.79 11.7-11.7 3.65-3.66 7.3-7.32 11-11 1.34-1.34 2.69-2.69 4.03-4.04 1.82-1.83 3.65-3.66 5.48-5.48 0.535-0.541 1.07-1.08 1.62-1.64 3.67-3.64 3.67-3.64 5.9-3.64 0.66-1.32 1.32-2.64 2-4h2c0.33-0.99 0.66-1.98 1-3h2c0.33-0.99 0.66-1.98 1-3 1.6-1.54 1.6-1.54 3.62-3.19 2.89-2.44 5.44-4.92 7.88-7.81 2.19-2.6 4.42-4.88 7.02-7.06 5.48-4.73 10.5-9.88 15.6-15 1.1-1.1 2.2-2.21 3.3-3.31 2.36-2.36 4.71-4.73 7.06-7.09 3.72-3.74 7.44-7.47 11.2-11.2 10.6-10.6 21.2-21.2 31.7-31.8 5.85-5.88 11.7-11.8 17.6-17.6 3.71-3.71 7.41-7.43 11.1-11.2 2.29-2.31 4.59-4.61 6.89-6.91 1.07-1.07 2.14-2.14 3.2-3.22 1.45-1.46 2.9-2.91 4.36-4.37 1.22-1.23 1.22-1.23 2.47-2.48 1.97-1.73 1.97-1.73 3.97-1.73 0.34-0.866 0.34-0.866 0.688-1.75 1.65-2.83 3.75-4.23 6.31-6.25 0.598-0.763 1.2-1.53 1.81-2.31 1.84-2.25 3.5-3.88 5.7-5.73 5.07-4.39 9.77-9.13 14.5-13.9 0.87-0.875 1.74-1.75 2.64-2.65 2.12-2.14 4.24-4.27 6.36-6.41z" fill="#000100"/>
<path transform="translate(1585,319)" d="m0 0c2.59 1.3 2.64 2.22 3.59 4.91 0.289 0.817 0.578 1.63 0.876 2.48 0.301 0.883 0.602 1.77 0.913 2.68 0.466 1.35 0.466 1.35 0.942 2.73 2.69 7.96 5.02 16 6.68 24.2 0.252 1.23 0.252 1.23 0.509 2.49 1.52 8.17 1.78 16.1 1.75 24.4 3e-3 1.48 0.00688 2.96 0.0115 4.44 0.0102 4.05 0.00814 8.11 0.00394 12.2-0.00237 4.42 0.00681 8.83 0.0145 13.2 0.0118 7.73 0.0162 15.5 0.0157 23.2-7.94e-4 11.5 0.00977 23 0.0224 34.5 0.0247 22.9 0.0335 45.9 0.0385 68.8 2.61e-4 1.19 5.22e-4 2.38 7.91e-4 3.6 2.6e-4 1.19 5.21e-4 2.38 7.89e-4 3.61 0.00308 13.2 0.00959 26.4 0.0162 39.6 0.0196 39.9 0.0361 79.7 0.0389 120 9.41e-5 1.27 1.88e-4 2.55 2.85e-4 3.86 3.78e-4 5.17 7.42e-4 10.3 0.0011 15.5 2.72e-4 3.89 5.48e-4 7.78 8.25e-4 11.7 8.8e-5 1.28 1.76e-4 2.57 2.67e-4 3.89 0.0029 40.4 0.025 80.7 0.0613 121 0.0408 45.4 0.0644 90.7 0.0647 136 9.68e-5 4.84 2.64e-4 9.68 4.8e-4 14.5 4.41e-5 1.19 8.82e-5 2.38 1.34e-4 3.61 0.00112 19.1 0.0185 38.3 0.0417 57.4 0.0229 19.3 0.027 38.5 0.0125 57.8-0.00813 11.4-0.00253 22.9 0.0232 34.3 0.0158 7.65 0.0132 15.3-0.00391 23-0.00922 4.35-0.0109 8.7 0.00997 13 0.123 27.5-2 54.6-14.6 79.7-6.39-5.22-12.2-11-18-16.9-1.83-1.84-3.67-3.68-5.5-5.52-3.89-3.9-7.78-7.81-11.7-11.7-4.51-4.54-9.03-9.07-13.6-13.6-1.8-1.81-3.6-3.62-5.4-5.43-1.11-1.11-2.22-2.23-3.33-3.34-0.495-0.5-0.989-1-1.5-1.51-2.89-2.89-5.91-5.44-9.1-7.98-1.21-1.45-1.21-1.45-2.44-2.94-2.62-3.13-5.4-5.49-8.56-8.06-2.88-2.69-2.88-2.69-5-5v-2c-0.99-0.33-1.98-0.66-3-1v-2c-0.551-0.226-1.1-0.452-1.67-0.685-3.04-1.71-5.14-3.88-7.6-6.35-0.519-0.517-1.04-1.03-1.57-1.57-1.74-1.73-3.46-3.48-5.19-5.22-1.24-1.25-2.49-2.49-3.73-3.74-2.68-2.68-5.35-5.37-8.03-8.05-4.23-4.25-8.46-8.49-12.7-12.7-6.7-6.71-13.4-13.4-20.1-20.1-12-12-24-24-36-36.1-4.21-4.22-8.41-8.44-12.6-12.7-2.62-2.63-5.24-5.25-7.85-7.88-1.21-1.22-2.43-2.43-3.64-3.65-1.66-1.66-3.31-3.33-4.97-4.99-0.927-0.93-1.85-1.86-2.81-2.82-2.55-2.52-2.55-2.52-5.42-4.68-0.714-0.592-1.43-1.18-2.16-1.79v-2c-0.529-0.204-1.06-0.407-1.6-0.617-3.43-1.98-6-4.72-8.76-7.51-0.636-0.635-1.27-1.27-1.93-1.92-2.13-2.13-4.26-4.27-6.39-6.41-1.53-1.53-3.06-3.06-4.58-4.59-3.29-3.3-6.58-6.59-9.87-9.89-5.2-5.22-10.4-10.4-15.6-15.6-8.23-8.25-16.5-16.5-24.7-24.7-14.7-14.8-29.5-29.5-44.2-44.3-5.17-5.18-10.3-10.4-15.5-15.6-3.22-3.23-6.44-6.45-9.66-9.68-1.49-1.5-2.98-2.99-4.47-4.49-2.04-2.05-4.08-4.09-6.11-6.13-0.587-0.591-1.17-1.18-1.78-1.79-2.61-2.61-5.24-5.1-8.1-7.44-3-2.5-5.24-5.28-7.74-8.28-1.94-1.75-3.97-3.36-6-5-2.38-2.19-2.38-2.19-4-4v-2c-1.32-0.66-2.64-1.32-4-2v-2c-0.99-0.33-1.98-0.66-3-1v-2c-0.894-0.407-0.894-0.407-1.81-0.823-2.16-1.16-3.57-2.3-5.3-4.01-0.588-0.578-1.18-1.16-1.78-1.75-0.632-0.632-1.26-1.26-1.92-1.91-0.675-0.667-1.35-1.33-2.05-2.02-2.23-2.2-4.45-4.42-6.67-6.63-1.54-1.53-3.09-3.07-4.63-4.6-3.23-3.22-6.46-6.44-9.69-9.66-4.14-4.14-8.3-8.26-12.5-12.4-3.19-3.16-6.37-6.34-9.55-9.51-1.53-1.52-3.06-3.05-4.6-4.56-2.14-2.12-4.27-4.25-6.39-6.38-0.643-0.628-1.29-1.26-1.95-1.9-1.74-1.77-1.74-1.77-4.21-4.85 0.433-4.17 2.62-5.73 5.75-8.38 4.26-3.69 4.26-3.69 8-7.88 2.48-3.03 5.21-5.28 8.25-7.75 1.68-1.65 3.34-3.32 5-5 0.814-0.816 1.63-1.63 2.47-2.47 0.87-0.873 1.74-1.75 2.64-2.65 1.02-1.02 2.03-2.04 3.05-3.06 0.536-0.538 1.07-1.08 1.63-1.63 12.4-12.4 24.7-24.8 37.1-37.2 7.15-7.16 14.3-14.3 21.4-21.5 6.24-6.26 12.5-12.5 18.7-18.8 3.3-3.31 6.61-6.61 9.9-9.93 3.1-3.11 6.2-6.21 9.3-9.32 1.14-1.14 2.28-2.28 3.42-3.43 1.55-1.56 3.1-3.11 4.65-4.66 0.869-0.871 1.74-1.74 2.63-2.64 2.09-1.84 2.09-1.84 4.09-1.84 0.33-0.99 0.66-1.98 1-3 1.94-2.19 1.94-2.19 4-4h2c0.33-0.99 0.66-1.98 1-3 1.64-1.37 3.31-2.69 5-4 1.69-1.64 3.35-3.31 5-5 1.17-1.17 2.33-2.33 3.5-3.5 0.547-0.547 1.09-1.09 1.66-1.66 1.36-1.36 2.72-2.72 4.07-4.07 2.98-2.98 5.96-5.97 8.94-8.95 1.25-1.26 2.51-2.51 3.76-3.77 0.665-0.666 1.33-1.33 2.01-2.02 15.3-15.3 30.6-30.6 45.9-45.9 8.84-8.85 17.7-17.7 26.5-26.6 7.71-7.73 15.4-15.5 23.1-23.2 4.09-4.09 8.17-8.18 12.3-12.3 3.83-3.84 7.67-7.68 11.5-11.5 1.41-1.41 2.82-2.83 4.23-4.24 1.91-1.92 3.84-3.84 5.76-5.76 0.563-0.569 1.13-1.14 1.71-1.72 3.85-3.82 3.85-3.82 6.08-3.82 0.33-0.99 0.66-1.98 1-3h2c0.66-1.32 1.32-2.64 2-4h2v-2c1.33-1.31 1.33-1.31 3.25-2.88 5.9-5.02 11.3-10.5 16.7-16 1.19-1.19 2.38-2.39 3.57-3.58 2.55-2.55 5.09-5.11 7.64-7.67 4.02-4.04 8.05-8.08 12.1-12.1 11.4-11.5 22.9-22.9 34.3-34.4 6.33-6.35 12.7-12.7 19-19 4.01-4.01 8.01-8.03 12-12.1 2.48-2.49 4.96-4.98 7.45-7.47 1.16-1.16 2.31-2.32 3.46-3.48 1.57-1.58 3.14-3.15 4.71-4.72 0.88-0.883 1.76-1.77 2.67-2.68 2.11-1.87 2.11-1.87 4.11-1.87 0.33-0.99 0.66-1.98 1-3 1.45-1.25 2.9-2.49 4.39-3.68 2.37-1.94 4.47-4.12 6.61-6.32 1.1-1.11 2.21-2.21 3.31-3.31 0.887-0.887 1.77-1.77 2.69-2.69z" fill="#000100"/>
<path transform="translate(13,319)" d="m0 0c3.41 1.47 5.61 3.37 8.21 6 0.821 0.825 1.64 1.65 2.49 2.5 0.879 0.893 1.76 1.79 2.66 2.71 1.39 1.4 2.79 2.8 4.18 4.21 1.95 1.96 3.9 3.93 5.84 5.9 3.4 3.43 6.8 6.86 10.2 10.3 1.81 1.82 3.62 3.65 5.42 5.48 4.18 4.21 8.38 8.18 13 11.9 0.619 0.784 1.24 1.57 1.88 2.38 1.8 2.22 3.42 3.8 5.59 5.62 5.35 4.63 10.3 9.65 15.3 14.7 1.06 1.06 2.12 2.12 3.18 3.18 2.26 2.27 4.53 4.54 6.79 6.81 3.58 3.59 7.16 7.18 10.7 10.8 7.6 7.61 15.2 15.2 22.8 22.8 8.21 8.23 16.4 16.5 24.6 24.7 3.56 3.57 7.12 7.13 10.7 10.7 2.21 2.22 4.42 4.43 6.63 6.65 1.02 1.03 2.05 2.05 3.07 3.08 1.4 1.4 2.8 2.81 4.2 4.21 0.782 0.785 1.56 1.57 2.37 2.38 2.1 2.07 2.1 2.07 4.44 3.69 0.567 0.445 1.13 0.89 1.72 1.35v2h2v2c0.532 0.207 1.06 0.413 1.61 0.626 3.37 1.94 5.89 4.61 8.6 7.35 0.62 0.619 1.24 1.24 1.88 1.88 2.08 2.08 4.15 4.16 6.22 6.25 1.49 1.49 2.98 2.98 4.47 4.47 3.21 3.21 6.41 6.42 9.61 9.64 5.06 5.09 10.1 10.2 15.2 15.2 8.02 8.03 16 16.1 24.1 24.1 14.3 14.4 28.7 28.8 43.1 43.2 5.04 5.05 10.1 10.1 15.1 15.1 3.13 3.15 6.27 6.29 9.41 9.43 1.45 1.46 2.9 2.91 4.36 4.37 1.98 1.99 3.97 3.98 5.96 5.97 0.571 0.575 1.14 1.15 1.73 1.74 2.57 2.57 5.17 5.02 7.98 7.32 3.01 2.5 5.25 5.29 7.75 8.29 1.94 1.75 3.97 3.36 6 5 2.37 2.19 2.37 2.19 4 4v2c1.32 0.66 2.64 1.32 4 2v2c0.99 0.33 1.98 0.66 3 1v2c0.835 0.348 0.835 0.348 1.69 0.703 2.93 1.64 4.94 3.68 7.31 6.06 0.489 0.488 0.979 0.975 1.48 1.48 1.64 1.63 3.27 3.27 4.9 4.91 1.17 1.17 2.35 2.35 3.52 3.52 3.18 3.18 6.36 6.37 9.54 9.56 3.32 3.33 6.65 6.66 9.97 9.99 6.3 6.3 12.6 12.6 18.9 18.9 7.16 7.18 14.3 14.4 21.5 21.5 14.7 14.8 29.5 29.5 44.2 44.3-1.42 3.24-3.15 5.4-5.64 7.9-0.757 0.763-1.51 1.53-2.29 2.31-0.831 0.827-1.66 1.65-2.52 2.51-1.31 1.32-1.31 1.32-2.65 2.66-2.4 2.4-4.8 4.8-7.2 7.2-2.51 2.51-5.02 5.02-7.53 7.54-4.21 4.22-8.43 8.43-12.7 12.6-4.88 4.87-9.76 9.75-14.6 14.6-4.18 4.19-8.37 8.38-12.6 12.6-2.5 2.5-5 5-7.5 7.5-2.78 2.79-5.57 5.57-8.36 8.35-0.831 0.835-1.66 1.67-2.52 2.53-1.14 1.13-1.14 1.13-2.29 2.28-0.989 0.988-0.989 0.988-2 2-1.65 1.39-1.65 1.39-3.65 1.39l-2 4h-2l-1 3h-2l-2 4h-2l-1 3c-1.45 1.22-2.9 2.43-4.39 3.61-2.53 2.18-4.49 4.83-6.61 7.39-1.65 1.36-3.31 2.69-5 4-1.68 1.65-3.34 3.32-5 5-1.31 1.31-1.31 1.31-2.64 2.65-0.961 0.964-1.92 1.93-2.88 2.89-1.11 1.11-2.22 2.22-3.33 3.34-0.587 0.588-1.17 1.18-1.78 1.78-13.5 13.5-27 27.1-40.5 40.6-7.81 7.82-15.6 15.6-23.4 23.5-6.82 6.84-13.6 13.7-20.5 20.5-3.61 3.61-7.22 7.23-10.8 10.8-3.38 3.4-6.77 6.79-10.2 10.2-1.25 1.25-2.49 2.5-3.74 3.75-1.69 1.7-3.39 3.4-5.09 5.09-0.497 0.502-0.993 1-1.5 1.52-3.41 3.38-3.41 3.38-5.64 3.38v2c-1.57 1.55-1.57 1.55-3.69 3.31-3.28 2.75-6.3 5.65-9.31 8.69-0.912 0.914-1.82 1.83-2.76 2.77-1.02 1.02-2.04 2.05-3.06 3.07-1.18 1.18-2.35 2.36-3.53 3.54-0.935 0.938-0.935 0.938-1.89 1.89-14.3 14.4-28.7 28.7-43 43.1-8.3 8.31-16.6 16.6-24.9 24.9-7.24 7.26-14.5 14.5-21.7 21.8-3.83 3.84-7.67 7.68-11.5 11.5-3.59 3.61-7.19 7.21-10.8 10.8-1.32 1.33-2.65 2.65-3.97 3.98-1.8 1.81-3.6 3.61-5.4 5.41-0.528 0.534-1.06 1.07-1.6 1.62-3.62 3.59-3.62 3.59-5.85 3.59l-1 3c-1.66 1.34-3.33 2.67-5 4-1.2 1.46-2.4 2.92-3.59 4.4-1.5 1.7-3.08 3.09-4.82 4.55-5.87 5.08-11.3 10.6-16.7 16.1-1.15 1.16-2.31 2.31-3.46 3.47-3.01 3.02-6.02 6.04-9.04 9.06-3.08 3.09-6.17 6.18-9.25 9.27-6.03 6.04-12.1 12.1-18.1 18.1-3.32-3.04-4.51-6.44-5.94-10.6-0.389-1.13-0.389-1.13-0.786-2.28-5.84-17.4-8.59-34.9-8.54-53.3-3e-3 -1.48-0.00688-2.97-0.0115-4.45-0.0102-4.06-0.00814-8.11-0.00394-12.2 0.00238-4.42-0.00682-8.84-0.0145-13.3-0.0118-7.74-0.0162-15.5-0.0157-23.2 7.95e-4 -11.5-0.00977-23-0.0224-34.5-0.0247-23-0.0335-45.9-0.0385-68.9-2.61e-4 -1.19-5.22e-4 -2.38-7.91e-4 -3.6-2.6e-4 -1.19-5.21e-4 -2.38-7.89e-4 -3.61-0.00308-13.2-0.00959-26.4-0.0162-39.6-0.0196-39.9-0.0361-79.8-0.0389-120-9.41e-5 -1.28-1.88e-4 -2.55-2.85e-4 -3.87-3.78e-4 -5.17-7.42e-4 -10.3-0.0011-15.5-2.72e-4 -3.89-5.48e-4 -7.78-8.25e-4 -11.7-8.8e-5 -1.29-1.76e-4 -2.57-2.67e-4 -3.9-0.0029-40.4-0.025-80.8-0.0613-121-0.0407-45.4-0.0644-90.8-0.0647-136-9.68e-5 -4.84-2.64e-4 -9.69-4.8e-4 -14.5-4.41e-5 -1.19-8.82e-5 -2.39-1.34e-4 -3.61-0.00112-19.2-0.0185-38.3-0.0417-57.5-0.0229-19.3-0.027-38.6-0.0125-57.8 0.00814-11.4 0.00252-22.9-0.0232-34.3-0.0158-7.66-0.0132-15.3 0.00391-23 0.00923-4.35 0.0109-8.71-0.00997-13.1-0.121-27 3.31-51.3 13.6-76.4z" fill="#000100"/>
</svg>
