<svg version="1.1" viewBox="0 0 1600 1600" width="1280" height="1280" xmlns="http://www.w3.org/2000/svg">
<path transform="translate(337 181)" d="m0 0c1.67 1.47 3.34 2.95 5 4.44 1.22 1.09 1.22 1.09 2.46 2.2 9.65 8.73 18.8 17.9 28 27.1 1.84 1.84 3.68 3.67 5.52 5.51 4.45 4.44 8.9 8.89 13.3 13.3 3.62 3.62 7.24 7.23 10.9 10.8 10.3 10.3 20.6 20.6 30.9 30.8 0.552 0.552 1.1 1.1 1.67 1.67 0.553 0.553 1.11 1.11 1.68 1.68 8.97 8.97 17.9 17.9 26.9 26.9 9.25 9.23 18.5 18.5 27.7 27.7 5.18 5.18 10.4 10.4 15.5 15.5 4.87 4.86 9.74 9.73 14.6 14.6 1.78 1.78 3.56 3.56 5.34 5.34 8.61 8.58 17 17.1 24.5 26.7 1.16 1.42 2.33 2.84 3.5 4.25 17.9 23.3 27.8 52.5 24 81.9-3.58 23.2-14.5 44.1-29.7 61.7-3.47 3.99-6.74 8.14-10 12.3-0.587 0.643-1.17 1.29-1.78 1.95h-2v2h-2c-0.33 0.99-0.66 1.98-1 3-1.64 1.37-3.31 2.69-5 4-1.13 1.11-2.26 2.23-3.38 3.36-2.01 2.03-4.03 4.05-6.06 6.06-0.858 0.854-1.72 1.71-2.6 2.59-0.928 0.923-1.86 1.85-2.81 2.8-10.1 10-20.1 20.1-30.2 30.1-6.09 6.07-12.2 12.1-18.3 18.2-5.33 5.3-10.7 10.6-16 15.9-2.81 2.81-5.62 5.61-8.44 8.41-2.65 2.63-5.3 5.27-7.94 7.92-1.42 1.42-2.86 2.84-4.29 4.25-6.72 6.75-13 13.3-13.4 23.2 0.299 14.1 8.82 27.9 14.9 40.2 0.445 0.908 0.89 1.82 1.35 2.75 6.19 12.6 12.5 25 19.8 37 1.32 2.2 2.6 4.41 3.88 6.63 5.43 9.43 11.3 18.5 17.4 27.5 1.06 1.56 2.11 3.11 3.17 4.67 9.69 14.3 19.6 28.2 30.2 41.7 2.9 3.7 5.75 7.44 8.59 11.2 5.51 7.29 11.2 14.3 17.2 21.2 2.48 2.85 4.89 5.76 7.27 8.7 4.37 5.38 8.88 10.6 13.4 15.9 2.01 2.34 4.01 4.68 6 7.04 6.05 7.16 12.3 14.1 18.8 20.9 3.63 3.82 7.14 7.72 10.6 11.7 2.85 3.24 5.79 6.4 8.74 9.54 0.638 0.681 1.28 1.36 1.93 2.06 5.24 5.56 10.6 11 16.1 16.3 2.64 2.6 5.1 5.16 7.44 8.04 2.58 3.02 5.3 5.44 8.31 8 5.42 4.81 10.4 10.1 15.5 15.3 4.51 4.55 9.06 8.98 13.9 13.1 3.58 3.08 6.99 6.35 10.4 9.58 2.97 2.83 2.97 2.83 6.41 5.01v2c0.818 0.338 0.818 0.338 1.65 0.684 3.05 1.71 5.4 3.99 7.91 6.38 4.64 4.33 9.39 8.45 14.3 12.4 3.09 2.5 6.16 5.03 9.22 7.56 18.8 15.6 38.1 30.7 58.2 44.7 1.78 1.26 3.56 2.53 5.33 3.81 20.3 14.6 41.4 28.4 63.4 40.4 1 0.55 2 1.1 3.04 1.67 14.6 8.03 29.5 15.7 44.4 23.1 0.792 0.396 1.58 0.793 2.4 1.2 2.26 1.13 4.52 2.26 6.78 3.38 0.673 0.336 1.35 0.672 2.04 1.02 7.37 3.65 13 5.87 21.3 4.59 6.01-2.54 10.6-6.3 15-11h2c0.66-1.32 1.32-2.64 2-4h2l1-3h2c0.264-0.589 0.529-1.18 0.801-1.78 1.24-2.3 2.55-3.82 4.39-5.67 0.616-0.619 1.23-1.24 1.87-1.88 0.642-0.634 1.28-1.27 1.95-1.92 0.642-0.65 1.28-1.3 1.95-1.97l3.57-3.56c1.48-1.22 1.48-1.22 3.48-1.22 0.257-0.582 0.514-1.16 0.778-1.76 1.33-2.44 2.8-4.07 4.77-6.04 0.736-0.741 1.47-1.48 2.23-2.25 1.21-1.21 1.21-1.21 2.45-2.44 1.28-1.28 1.28-1.28 2.58-2.59 2.33-2.34 4.67-4.68 7.01-7.01 2.46-2.45 4.91-4.91 7.36-7.37 4.13-4.13 8.26-8.26 12.4-12.4 4.76-4.75 9.51-9.5 14.3-14.3 4.09-4.1 8.18-8.19 12.3-12.3 2.44-2.44 4.88-4.87 7.31-7.32 2.73-2.73 5.46-5.46 8.2-8.18 0.79-0.794 1.58-1.59 2.39-2.4 5.69-5.65 11.7-10.7 18-15.7 1.09-0.903 2.17-1.81 3.25-2.71 21-17 47.6-27 74.8-25.3 1.15 0.0683 2.3 0.137 3.49 0.207 23.8 2.18 45.3 12.7 63.5 27.8 1.49 1.22 1.49 1.22 3 2.47 10.7 8.89 20.4 18.7 30.2 28.5 1.9 1.89 3.79 3.78 5.69 5.67 4.58 4.57 9.16 9.15 13.7 13.7 3.72 3.73 7.45 7.45 11.2 11.2 0.8 0.799 0.8 0.799 1.62 1.61 1.08 1.08 2.17 2.17 3.25 3.25 10.1 10.1 20.3 20.2 30.4 30.4 9.23 9.24 18.5 18.5 27.7 27.7 9.53 9.51 19 19 28.6 28.5 5.33 5.33 10.7 10.7 16 16 4.54 4.53 9.08 9.06 13.6 13.6 2.3 2.31 4.61 4.62 6.92 6.92 26.5 26.4 49.1 56 50.2 94.9-0.147 45-27.7 76.4-57.7 107-1.91 1.92-3.82 3.84-5.73 5.76-1.22 1.22-2.44 2.44-3.66 3.66-0.568 0.575-1.14 1.15-1.72 1.74-3.98 3.96-3.98 3.96-6.21 3.96v2c-1.34 1.32-1.34 1.32-3.28 2.91-5.18 4.41-9.97 9.19-14.8 14-1.51 1.52-3.03 3.03-4.55 4.55-4.06 4.06-8.11 8.11-11.8 12.5-5.51 6.44-11.7 12.3-17.7 18.2-5.55 5.49-11 11-16.1 16.9-10.7 12.2-22.6 23.4-35.7 33-0.869 0.675-1.74 1.35-2.63 2.05-36.7 28.1-84.8 40.3-131 40.5-1.28 0.00693-1.28 0.00693-2.59 0.014-24.6 0.0216-48.9-3.78-73.2-7.58-0.793-0.123-1.59-0.245-2.4-0.372-8.58-1.33-17.1-2.86-25.6-4.63-1.21-0.252-2.42-0.504-3.67-0.764-61-12.9-119-34.1-176-60.5-3.35-1.57-6.7-3.11-10.1-4.65-17.2-7.88-34.2-16.1-50.9-25-4.64-2.46-9.3-4.88-14-7.27-14.1-7.23-27.9-14.8-41.6-22.9-5.37-3.17-10.8-6.26-16.2-9.36-8.23-4.74-16.4-9.5-24.6-14.3-0.832-0.487-1.66-0.973-2.52-1.47-14.4-8.5-28.2-17.9-42.1-27.2-3.74-2.5-7.49-5-11.2-7.5-0.909-0.607-1.82-1.21-2.75-1.84-5.04-3.37-10.1-6.72-15.2-10.1-10.4-6.87-20.6-13.9-30.5-21.5-3.74-2.84-7.53-5.62-11.3-8.4-1.19-0.875-1.19-0.875-2.4-1.77-4.07-3-8.15-5.99-12.2-8.97-13-9.53-25.7-19.3-38-29.8-3.62-3.09-7.31-6.1-11-9.1-16.5-13.4-32.9-26.9-48.5-41.3-3.15-2.9-6.31-5.77-9.5-8.62-7.4-6.64-14.7-13.4-21.9-20.2-0.655-0.613-1.31-1.23-1.98-1.86-1.25-1.17-2.51-2.35-3.76-3.53-2.94-2.76-5.91-5.45-8.98-8.07-5.62-4.89-10.8-10.2-16.1-15.4-1.81-1.8-3.62-3.6-5.44-5.4-1.15-1.15-2.3-2.29-3.45-3.44-0.544-0.536-1.09-1.07-1.65-1.63-3.76-3.78-3.76-3.78-3.76-6.01-0.99-0.33-1.98-0.66-3-1-1.42-1.44-1.42-1.44-2.97-3.34-3.02-3.56-6.19-6.91-9.5-10.2-0.488-0.485-0.976-0.969-1.48-1.47-1.52-1.5-3.03-3-4.55-4.5-6.4-6.31-12.7-12.7-18.5-19.5-1.66-1.84-3.33-3.67-5-5.5-3.45-3.79-6.86-7.6-10.2-11.5-2.07-2.36-4.17-4.7-6.28-7.03-6.46-7.16-12.8-14.5-19-21.8-2.87-3.36-5.78-6.68-8.73-9.96-3.26-3.65-6.33-7.42-9.36-11.3-3.02-3.78-6.11-7.51-9.2-11.2-4.8-5.8-9.52-11.7-14.2-17.6-2.27-2.92-4.56-5.82-6.89-8.69-6.09-7.52-11.9-15.2-17.6-23-3.77-5.16-7.62-10.3-11.5-15.3-7.47-9.69-14.5-19.6-21.3-29.7-2.92-4.3-5.91-8.54-8.89-12.8-1.18-1.68-2.35-3.35-3.53-5.03-1.52-2.17-3.04-4.34-4.57-6.51-5.29-7.54-10.4-15.2-15.3-23-1.52-2.39-3.04-4.77-4.57-7.15-12.8-20-25.2-40.2-37-60.9-1.63-2.85-3.28-5.7-4.93-8.54-6.03-10.4-11.7-20.9-17.2-31.6-2.97-5.77-6.02-11.5-9.27-17.1-5.36-9.37-9.89-19.1-14.5-28.9-1.01-2.16-2.03-4.31-3.04-6.46-10.7-22.6-20.8-45.3-30.1-68.5-1.07-2.66-2.15-5.32-3.23-7.97-12.5-30.7-24.2-62-32.6-94-0.416-1.57-0.832-3.13-1.25-4.7-6.51-24.6-12.2-49.1-15.8-74.3-0.103-0.718-0.207-1.44-0.313-2.18-4.91-34.2-6.98-70-0.247-104 0.561-2.85 1.06-5.71 1.54-8.58 8.42-48.9 35.5-84.2 69.9-118 2.74-2.73 5.47-5.46 8.2-8.2 2.11-2.12 4.23-4.24 6.35-6.35 1.01-1.01 2.02-2.02 3.03-3.03 1.39-1.4 2.8-2.79 4.2-4.18 0.794-0.793 1.59-1.59 2.41-2.4 1.94-1.69 1.94-1.69 3.94-1.69 0.495-1.49 0.495-1.49 1-3 1.39-1.2 2.78-2.4 4.23-3.52 2.4-2.01 4.56-4.26 6.77-6.48 1.2-1.2 2.41-2.41 3.61-3.61 0.664-0.664 1.33-1.33 2.01-2.01 8.26-8.26 16.5-16.5 24.8-24.8 0.622-0.622 1.24-1.24 1.88-1.89 1.08-1.08 2.17-2.16 3.25-3.24 2.42-2.41 4.71-4.86 6.91-7.48 2.1-2.44 4.17-4.62 6.69-6.62 2.54-2.1 4.44-4.24 6.49-6.8 2.11-2.41 4.53-4.4 6.96-6.47 1.84-1.6 3.61-3.22 5.37-4.91 7.24-6.91 14.6-12.8 23.1-18.2 1.08-0.688 2.15-1.38 3.26-2.09 41.3-25.1 90.6-19.1 128 10.6z" fill="#000100"/>
<path transform="translate(826)" d="m0 0c63 10.4 63 10.4 89.6 17.4 2.77 0.725 5.53 1.44 8.3 2.16 28.7 7.45 56.9 15.6 84.8 25.9 4.08 1.51 8.17 2.95 12.3 4.38 16.8 5.91 33 12.9 49.1 20.5 5.36 2.49 10.8 4.85 16.2 7.19 23.9 10.4 46.7 23.2 69.3 36.2 2.2 1.25 4.41 2.47 6.63 3.68 10.2 5.57 19.8 11.9 29.5 18.5 3.79 2.55 7.6 5.07 11.4 7.59 29 19.2 29 19.2 40.9 28.6 0.896 0.713 0.896 0.713 1.81 1.44 2.5 1.99 4.99 3.99 7.48 5.99 4.65 3.75 9.38 7.39 14.1 11 13.5 10.3 26.4 21 38.7 32.7 3.03 2.88 6.09 5.73 9.16 8.57 0.787 0.734 0.787 0.734 1.59 1.48 2.11 1.95 4.19 3.79 6.52 5.47 0.541 0.428 1.08 0.856 1.64 1.3v2c0.583 0.254 1.17 0.508 1.77 0.77 2.48 1.36 4.04 2.87 5.98 4.92 2.56 2.68 5.21 5.15 8.02 7.56 4.34 3.77 8.26 7.85 12.2 12.1 0.703 0.753 1.41 1.51 2.13 2.28 4.23 4.54 8.4 9.12 12.5 13.8 3.26 3.59 6.58 7.12 9.9 10.7 8.58 9.14 16.9 18.3 24.5 28.2 3.11 4 6.31 7.92 9.52 11.8 5.14 6.3 10.2 12.7 15.1 19.2 1.52 1.99 3.05 3.96 4.58 5.93 1.13 1.47 2.27 2.93 3.4 4.4 0.514 0.66 1.03 1.32 1.56 2 4.58 5.95 8.69 12.2 12.8 18.4 1.29 1.93 2.57 3.86 3.86 5.79 2 3 4 5.99 5.99 8.99 3.12 4.69 6.25 9.38 9.43 14 6.93 10.2 13.2 20.6 19.2 31.4 2.16 3.85 4.34 7.69 6.52 11.5 2.19 3.86 4.36 7.73 6.54 11.6 1.35 2.39 2.72 4.78 4.08 7.16 6.87 12 12.8 24.4 18.7 37 1.63 3.45 3.28 6.9 4.94 10.3 7.44 15.6 14 31.4 20.2 47.6 1.7 4.45 3.43 8.87 5.19 13.3 8.25 20.8 15.1 41.8 21.4 63.3 0.356 1.21 0.711 2.43 1.08 3.67 6.88 23.6 12.5 47.4 17.6 71.4 0.58 2.74 1.16 5.47 1.74 8.21 0.355 1.67 0.709 3.34 1.06 5.01 1.11 5.27 2.27 10.5 3.44 15.8-18.3 3.89-36.8 6.94-55.3 10.1-5.06 0.858-10.1 1.72-15.2 2.58-4.07 0.693-8.14 1.38-12.2 2.07-6.91 1.17-13.8 2.35-20.7 3.57-1.62 0.285-1.62 0.285-3.26 0.577-1.93 0.342-3.86 0.687-5.78 1.04-0.827 0.147-1.65 0.294-2.51 0.445-0.7 0.126-1.4 0.252-2.12 0.382-1.96 0.264-1.96 0.264-5.96 0.264-0.134-0.637-0.268-1.27-0.406-1.93-10.2-48.3-20.9-96.7-39.7-142-1.44-3.5-2.8-7.02-4.11-10.6-5.61-15.2-12-29.9-19-44.5-1.23-2.57-2.46-5.14-3.68-7.71-6.98-14.6-13.9-29.2-22.2-43.2-0.581-0.989-1.16-1.98-1.76-3-2.69-4.57-5.42-9.13-8.17-13.7-2.01-3.33-3.88-6.7-5.69-10.1-3.93-7.27-8.64-14-13.3-20.8-0.945-1.38-1.89-2.77-2.83-4.15-1.41-2.06-2.81-4.12-4.22-6.17-2.58-3.77-5.15-7.56-7.69-11.4-5.91-8.83-12.2-17.2-18.9-25.4-3.35-4.04-6.52-8.21-9.68-12.4-10.8-14.2-22.2-27.6-34.6-40.5-3.12-3.26-6.19-6.56-9.27-9.86-0.573-0.613-1.15-1.23-1.74-1.86-2.68-2.88-5.35-5.76-7.99-8.69-5.05-5.59-10.1-10.9-16-15.6-1.34-1.1-2.67-2.2-4-3.31-0.577-0.471-1.16-0.941-1.75-1.43-1.25-1.26-1.25-1.26-1.25-3.26-0.575-0.246-1.15-0.492-1.74-0.746-2.61-1.45-4.32-3.16-6.38-5.32-2.65-2.85-2.65-2.85-5.88-4.94v-2c-0.543-0.22-1.09-0.441-1.64-0.668-3.12-1.77-5.49-4.17-8.04-6.64-5.64-5.34-11.6-10.1-17.8-14.8-4.95-3.72-9.79-7.56-14.6-11.5-5.32-4.36-10.7-8.61-16.2-12.8-0.601-0.455-1.2-0.91-1.82-1.38-5.22-3.9-10.6-7.49-16.1-11.1-2.06-1.36-4.11-2.72-6.16-4.08-4.02-2.67-8.05-5.33-12.1-7.99-1.67-1.1-3.33-2.2-5-3.31-10-6.66-20.1-13-30.6-18.8-1.18-0.655-2.36-1.31-3.54-1.97-3.61-2-7.22-3.99-10.8-5.97-14.5-7.95-14.5-7.95-21.3-11.9-8.36-4.83-17-8.79-25.9-12.6-3.35-1.46-6.69-2.94-10-4.43-19.6-8.7-39.2-17-59.4-24.1-1.28-0.455-2.57-0.911-3.85-1.37-19-6.75-38.3-12.5-57.8-17.6-1.03-0.273-2.07-0.547-3.13-0.829-21.3-5.61-42.6-10.1-64.2-13.9-3.43-0.603-6.85-1.21-10.3-1.81-2.11-0.375-4.22-0.747-6.34-1.12-0.943-0.167-1.89-0.334-2.86-0.507-1.24-0.218-1.24-0.218-2.51-0.441-2.02-0.435-2.02-0.435-4.02-1.44 0.551-12.4 2.24-24.6 4.06-36.9 0.308-2.11 0.615-4.23 0.922-6.34 0.486-3.35 0.973-6.69 1.46-10 1.28-8.74 2.52-17.5 3.76-26.2 0.365-2.58 0.73-5.16 1.1-7.74 0.535-3.78 1.07-7.56 1.6-11.3 0.495-3.51 0.994-7.03 1.49-10.5 0.148-1.05 0.295-2.11 0.447-3.19 0.138-0.965 0.275-1.93 0.417-2.92 0.119-0.84 0.238-1.68 0.36-2.55 0.377-2.16 0.377-2.16 1.38-5.16z" fill="#000100"/>
<path transform="translate(810,320)" d="m0 0c1.93 0.202 3.85 0.483 5.77 0.797 1.77 0.289 1.77 0.289 3.58 0.584 1.2 0.204 2.41 0.409 3.65 0.619 1.06 0.179 2.11 0.357 3.2 0.541 16.4 2.85 32.7 6.31 48.8 10.5 0.954 0.239 1.91 0.478 2.89 0.724 43.6 11 86.2 28.8 125 51.3 1.75 0.984 3.5 1.97 5.25 2.95 21.3 12.1 42.4 25.9 61.2 41.7 2.24 1.86 4.55 3.64 6.86 5.43 10.3 7.98 20.5 16.2 29.5 25.6 1.94 1.92 3.92 3.69 5.98 5.46 4.47 3.88 8.66 8.01 12.8 12.2 0.716 0.712 1.43 1.42 2.17 2.16 4.04 4.04 7.89 8.19 11.6 12.5 2.05 2.35 4.18 4.6 6.33 6.86 6.41 6.75 12.2 13.8 17.9 21.2 1.46 1.88 2.95 3.73 4.46 5.58 17.4 21.5 32.4 45.2 46 69.3 0.491 0.86 0.982 1.72 1.49 2.6 13.2 23.2 24 47.5 33.5 72.4 0.37 0.952 0.741 1.9 1.12 2.89 10 25.8 17.3 52.7 23.1 79.8 0.23 1.06 0.23 1.06 0.464 2.14 2.54 11.8 2.54 11.8 1.29 16.2-29.9 5.24-59.8 10.5-89.7 15.6-2.3 0.394-4.6 0.789-6.9 1.19-3.19 0.55-6.38 1.09-9.57 1.64-0.934 0.162-1.87 0.324-2.83 0.491-4.05 0.684-7.91 1.31-12 1.09-0.15-0.637-0.301-1.27-0.456-1.93-1.55-6.56-3.13-13.1-4.72-19.7-0.51-2.1-1.02-4.2-1.52-6.31-6.1-25.4-14.3-50.4-25.3-74.1-0.466-1.01-0.931-2.02-1.41-3.06-5.3-11.5-10.7-22.8-17.5-33.5-1.77-2.8-3.33-5.69-4.88-8.62-3.43-6.33-7.37-12.2-11.4-18.2-0.374-0.547-0.748-1.09-1.13-1.66-5.49-8.03-11.1-15.9-17.3-23.4-1.47-1.8-2.91-3.62-4.35-5.45-10.6-13.4-22.4-25.7-34.5-37.8-0.634-0.639-1.27-1.28-1.92-1.94-4.36-4.35-8.9-8.44-13.6-12.4-0.927-0.797-1.85-1.59-2.81-2.41-3.04-2.56-6.11-5.08-9.19-7.59-0.567-0.461-1.13-0.922-1.72-1.4-36.8-29.6-78.9-52.7-123-68.6-0.996-0.359-1.99-0.719-3.02-1.09-26-9.31-52.8-14.9-80-19.9-1.01-3.22-0.962-5.63-0.482-8.95 0.21-1.5 0.21-1.5 0.425-3.02 0.241-1.63 0.241-1.63 0.488-3.3 0.164-1.15 0.328-2.3 0.497-3.48 0.545-3.81 1.1-7.61 1.66-11.4 0.381-2.64 0.761-5.27 1.14-7.91 0.797-5.53 1.6-11.1 2.41-16.6 0.934-6.4 1.86-12.8 2.78-19.2 0.885-6.15 1.77-12.3 2.67-18.4 0.38-2.62 0.759-5.24 1.14-7.86 0.527-3.65 1.06-7.3 1.59-11 0.157-1.09 0.314-2.19 0.476-3.31 0.146-0.988 0.292-1.98 0.442-3 0.126-0.864 0.251-1.73 0.381-2.62 0.391-1.95 0.391-1.95 1.39-2.95z" fill="#000100"/>
</svg>
