<svg xmlns="http://www.w3.org/2000/svg" version="1.1" width="484px" height="516px" style="shape-rendering:geometricPrecision; text-rendering:geometricPrecision; image-rendering:optimizeQuality; fill-rule:evenodd; clip-rule:evenodd" xmlns:xlink="http://www.w3.org/1999/xlink">
<g><path style="opacity:0.987" fill="#010101" d="M 230.5,-0.5 C 237.833,-0.5 245.167,-0.5 252.5,-0.5C 303.95,4.29662 345.117,27.2966 376,68.5C 409.694,122.149 412.028,176.815 383,232.5C 335.458,308.558 288.125,384.891 241,461.5C 230.417,443.998 219.584,426.665 208.5,409.5C 175.125,409.808 143.458,417.308 113.5,432C 111.208,433.29 109.208,434.957 107.5,437C 116.674,443.587 126.674,448.587 137.5,452C 171.294,461.685 205.794,466.518 241,466.5C 279.844,466.834 317.677,461 354.5,449C 361.989,445.759 368.989,441.759 375.5,437C 368.956,432.227 361.956,428.227 354.5,425C 339.17,419.418 323.503,415.251 307.5,412.5C 307.46,409.575 308.293,406.909 310,404.5C 317.911,392.217 326.077,380.051 334.5,368C 359.266,372.26 382.266,381.26 403.5,395C 433.757,422.325 434.09,449.992 404.5,478C 399.565,480.606 394.898,483.606 390.5,487C 361.963,500.398 331.963,508.732 300.5,512C 286.033,513.456 271.7,514.623 257.5,515.5C 256.5,515.5 255.5,515.5 254.5,515.5C 254.167,514.167 253.833,514.167 253.5,515.5C 245.5,515.5 237.5,515.5 229.5,515.5C 229.167,514.167 228.833,514.167 228.5,515.5C 227.5,515.5 226.5,515.5 225.5,515.5C 188.81,514.661 152.81,508.828 117.5,498C 98.0248,491.682 81.1915,481.182 67,466.5C 52.458,445.64 53.1247,425.307 69,405.5C 84.8183,390.171 103.318,379.338 124.5,373C 143.337,366.699 162.67,362.699 182.5,361C 154.325,317.161 126.158,273.327 98,229.5C 72.748,180.097 73.4147,130.431 100,80.5C 107.272,69.0726 115.439,58.4059 124.5,48.5C 126.167,47.5 127.5,46.1667 128.5,44.5C 156.966,17.6134 190.966,2.61341 230.5,-0.5 Z M 230.5,72.5 C 261.197,69.7585 285.03,81.0918 302,106.5C 316.376,137.952 311.21,165.785 286.5,190C 262.954,207.168 237.62,210.168 210.5,199C 177.928,179.992 166.761,152.159 177,115.5C 187.507,92.0028 205.341,77.6694 230.5,72.5 Z"/></g>
<g><path style="opacity:0.243" fill="#818181" d="M 128.5,44.5 C 127.5,46.1667 126.167,47.5 124.5,48.5C 124.833,46.1667 126.167,44.8333 128.5,44.5 Z"/></g>
</svg>
