<svg version="1.1" viewBox="0 0 1600 1600" width="1280" height="1280" xmlns="http://www.w3.org/2000/svg">
<path transform="translate(793 99.9)" d="m0 0c87.1-1.91 176 14.6 280 55.1 1.61 0.687 1.61 0.687 3.26 1.39 59.5 25.4 115 59 165 100 1.61 1.32 3.23 2.63 4.85 3.93 5.64 4.55 11.1 9.3 16.4 14.2 2.11 1.94 4.25 3.83 6.42 5.7 9.97 8.69 19.5 17.8 28.8 27.2 1.69 1.69 3.38 3.38 5.07 5.07 5.62 5.62 11.1 11.3 16.2 17.4 1.62 1.78 3.24 3.55 4.88 5.31 4.09 4.49 7.98 9.1 11.8 13.8 2.05 2.52 4.15 4.99 6.27 7.45 6.75 7.85 12.9 16.1 19.1 24.4 0.761 1.03 0.761 1.03 1.54 2.08 13.3 18 25.8 36.6 37.2 55.8 1.23 2.06 2.47 4.11 3.72 6.16 5.98 9.92 11.4 20.1 16.7 30.4 1.66 3.22 3.33 6.41 5.09 9.57 26.2 47.2 43.4 101 55.8 153 0.424 1.75 0.424 1.75 0.857 3.54 6.18 25.6 10.4 51.7 13.4 77.8 0.116 1.01 0.116 1.01 0.233 2.04 2.85 25.2 3.9 50.4 3.83 75.8-0.00567 2.15-0.00847 4.3-0.0111 6.45-0.063 35.8-2.67 70.9-8.31 106-0.11 0.703-0.221 1.41-0.335 2.13-5.67 36.1-14.4 71.2-25.7 106-0.224 0.694-0.449 1.39-0.68 2.1-11.3 35.1-25.5 69.6-43.2 102-1.74 3.18-3.34 6.41-4.94 9.65-3.03 6.08-6.34 12-9.79 17.8-0.607 1.04-1.21 2.07-1.84 3.14-11.6 19.7-24.1 38.8-37.5 57.3-0.526 0.727-1.05 1.45-1.59 2.2-11.1 15.3-22.8 29.9-35.2 44.1-2.08 2.38-4.14 4.78-6.17 7.21-5.88 7.01-12 13.6-18.6 20-3.12 2.92-3.12 2.92-5.46 6.44h-2c-0.255 0.586-0.51 1.17-0.773 1.77-1.35 2.45-2.8 3.94-4.86 5.83-0.724 0.673-1.45 1.35-2.2 2.04-0.758 0.694-1.52 1.39-2.3 2.1-1.48 1.37-2.96 2.74-4.45 4.11-0.735 0.68-1.47 1.36-2.23 2.06-2.19 2.07-4.31 4.18-6.42 6.32-2.89 2.92-5.86 5.59-9.09 8.13-3.8 3.05-7.43 6.19-11 9.5-5.13 4.72-10.5 9.01-16 13.3-3.13 2.42-6.21 4.9-9.28 7.39-6.96 5.63-14.1 11-21.4 16.1-2.16 1.52-4.31 3.05-6.45 4.59-71.8 51.2-155 88.1-323 122-0.668 0.0772-1.34 0.154-2.02 0.234-25.3 2.88-50.7 3.9-76.1 3.83-2.08-0.00547-4.15-0.00782-6.23-0.00987-21.8-0.0336-43.5-0.701-65.2-3.08-2.05-0.223-4.1-0.436-6.16-0.646-32.3-3.35-64.4-9.6-95.9-17.6-0.635-0.159-1.27-0.319-1.92-0.483-32.1-8.07-63.6-18.6-94.1-31.5-1-0.425-2-0.849-3.04-1.29-18.3-7.8-36.8-15.9-54.2-25.6-0.77-0.428-1.54-0.857-2.33-1.3-1.38-0.777-2.74-1.57-4.09-2.39-8.59-4.89-19.4-0.138-28.4 2.05-1.48 0.355-2.96 0.71-4.44 1.06-3.94 0.944-7.88 1.89-11.8 2.85-3.28 0.791-6.56 1.58-9.84 2.37-4.07 0.978-8.13 1.96-12.2 2.94-0.754 0.182-1.51 0.363-2.28 0.551-12.6 3.05-25.3 6.18-37.9 9.37-15.2 3.84-30.4 7.42-45.7 11-21.1 5.01-42.1 10.1-63.1 15.2-28.7 7.07-57.4 14.1-86.1 21-8.11 1.96-16.2 3.94-24.3 5.92-4.72 1.16-9.44 2.3-14.2 3.45-2.17 0.529-4.34 1.06-6.51 1.59-2.94 0.724-5.88 1.44-8.82 2.15-0.856 0.214-1.71 0.427-2.59 0.647-5.83 1.4-5.83 1.4-9.18 0.282 0.245-0.907 0.49-1.81 0.743-2.75 2.45-9.12 4.78-18.3 7.02-27.4 0.354-1.44 0.707-2.88 1.06-4.32 0.751-3.05 1.5-6.11 2.25-9.17 2.02-8.22 4.04-16.4 6.06-24.6 0.205-0.834 0.411-1.67 0.623-2.53 4.04-16.4 8.13-32.8 12.2-49.2 5.53-22.1 11-44.1 16.4-66.2 0.363-1.48 0.727-2.95 1.09-4.43 0.181-0.736 0.363-1.47 0.55-2.23 0.948-3.85 1.9-7.7 2.84-11.6 0.291-1.18 0.291-1.18 0.588-2.39 5.6-22.7 11.2-45.4 16.8-68.2 1.09-4.39 2.17-8.79 3.26-13.2 0.783-3.16 1.57-6.32 2.35-9.49 0.997-4.02 1.99-8.05 2.98-12.1 2.08-8.43 4.18-16.9 6.38-25.3 0.343-1.32 0.685-2.64 1.03-3.96 0.604-2.32 1.22-4.64 1.85-6.95 1.84-7.08 2.47-11.8-0.881-18.5-0.724-1.21-1.46-2.42-2.2-3.62-6.07-10.3-11.1-21.1-16.1-32-0.462-0.981-0.924-1.96-1.4-2.97-10.9-23.2-20.2-46.9-28.6-71-0.343-0.978-0.685-1.96-1.04-2.96-20.4-58.5-31.4-120-35-182-0.0868-1.4-0.0868-1.4-0.175-2.82-5.48-89.2 8.18-180 61.9-327 0.304-0.67 0.608-1.34 0.922-2.03 30.4-66.7 72-128 122-182 1.56-1.68 3.11-3.37 4.66-5.05 6.43-6.97 13-13.8 19.7-20.5 0.689-0.694 1.38-1.39 2.09-2.1 3.98-3.97 8.07-7.75 12.3-11.4 1.42-1.24 2.76-2.58 4.07-3.93 1.62-1.56 1.62-1.56 3.62-1.56v-2c1.55-1.39 3.17-2.71 4.81-4 4-3.19 7.82-6.45 11.6-9.94 5.39-4.96 11.1-9.38 16.9-13.8 2.25-1.71 4.45-3.48 6.66-5.24 15.4-12.2 31.6-23.3 48-34l2.33-1.53c67.3-43.9 143-74.9 243-97.5 0.677-0.134 1.35-0.267 2.05-0.405 41.6-8.15 83.4-11.6 126-12.7zm-254 372c-0.724 0.0906-1.45 0.181-2.19 0.275-6.93 0.986-13.1 3.07-19.4 6.1-0.982 0.471-1.96 0.941-2.98 1.43-11.7 6.24-21.8 16.2-30 26.6l-2.25 2.74c-35 43.4-48.5 100-42.9 155 3.61 30.7 12.4 60.6 26.2 88.2 0.408 0.832 0.816 1.66 1.24 2.52 9.59 19.4 21.1 37.5 34.4 54.6 2.32 3.03 4.55 6.13 6.79 9.22 12.6 17.2 25.9 33.8 39.7 50 2.85 3.34 5.63 6.73 8.38 10.1 4.06 4.99 8.35 9.71 12.7 14.4 2.09 2.26 4.13 4.56 6.14 6.89 3.59 4.12 7.31 8.1 11.1 12.1 4.84 5.12 9.6 10.3 14.1 15.7 1.32 1.64 1.32 1.64 3.42 1.41 0.33 0.99 0.66 1.98 1 3 1.62 1.71 3.3 3.37 5 5 1.02 1.03 2.04 2.05 3.05 3.09 5.25 5.31 10.5 10.5 16.2 15.4 1.84 1.61 3.55 3.3 5.26 5.04 2.9 2.95 5.94 5.66 9.08 8.36 2.52 2.23 4.97 4.51 7.42 6.81 5.59 5.25 11.3 10.3 17.2 15.1 2.47 1.99 4.88 4.04 7.28 6.1 7.55 6.49 15.4 12.5 23.4 18.5 1.99 1.5 3.97 3.01 5.95 4.53 16.4 12.5 33.3 24.3 51.1 34.8 2.72 1.61 5.43 3.24 8.13 4.87 1.87 1.13 3.74 2.24 5.62 3.36 1.97 1.18 3.94 2.38 5.9 3.59 6.88 4.26 14.1 7.8 21.3 11.4 1.99 0.986 3.98 1.99 5.96 3 49.5 25.2 103 42.1 158 48 0.916 0.103 1.83 0.206 2.78 0.312 24.3 2.66 50.5 4.55 74.2-2.31 0.763-0.214 1.53-0.429 2.31-0.649 20.2-5.82 37.7-15.8 53.7-29.4 0.637-0.501 1.27-1 1.93-1.52 5.53-4.42 9.73-9.92 14.1-15.5 0.745-0.941 1.49-1.88 2.26-2.85 18.7-24.2 32.9-54.1 30.7-85.1-2.11-16.1-10.1-30.2-22-41-0.59-0.551-1.18-1.1-1.79-1.67-8.45-7.31-18.4-11.8-28.3-16.7-1.97-0.982-3.93-1.97-5.9-2.95-4.11-2.05-8.22-4.1-12.3-6.14-5.23-2.59-10.5-5.2-15.7-7.82-4.06-2.03-8.11-4.05-12.2-6.07-1.92-0.959-3.85-1.92-5.77-2.88-25.2-12.6-51.1-23.4-79.4-15-18.8 6.57-30.3 20-40.6 36.3-1.44 2.24-2.88 4.49-4.33 6.73-0.918 1.43-1.83 2.86-2.74 4.29-6.92 10.8-13.4 19.8-25.9 24-32.7 4.29-78.3-24.8-104-43-1.13-0.788-2.25-1.58-3.38-2.36-16.5-11.6-31.9-24.2-46.7-37.9-1.97-1.82-3.96-3.63-5.96-5.42-11.2-10-20.9-21.2-30.6-32.6-1.32-1.56-2.65-3.12-3.98-4.67-59.4-70.1-59.4-70.1-57.9-97.3 2.01-13.3 10.4-22.7 19.3-32.2 4.63-4.96 8.93-10.2 13.1-15.5 1.14-1.42 1.14-1.42 2.31-2.86 10.9-13.9 16.8-27.9 17.1-45.5 0.0225-0.73 0.045-1.46 0.0681-2.21-0.0535-12.6-5.05-24.5-10.3-35.8-0.573-1.25-1.15-2.5-1.72-3.75-1.2-2.63-2.41-5.25-3.62-7.88-2.75-5.96-5.46-11.9-8.17-17.9-0.927-2.04-1.86-4.08-2.79-6.12-3.49-7.65-6.94-15.3-10.3-23-0.755-1.71-1.51-3.41-2.27-5.12-1.1-2.47-2.19-4.95-3.27-7.43-6.31-14.4-12.6-28.2-24-39.4-0.562-0.561-1.12-1.12-1.7-1.7-18.1-16.7-53.5-24.7-77.7-21.7z" fill="#000002"/>
</svg>
